<svg id="visual" viewBox="0 0 900 600" width="900" height="600" xmlns="http://www.w3.org/2000/svg" xmlns:xlink="http://www.w3.org/1999/xlink" version="1.1"><rect width="900" height="600" fill="#191919"></rect><g><g transform="translate(310 197)"><path d="M0 -40.2L34.8 -20.1L34.8 20.1L0 40.2L-34.8 20.1L-34.8 -20.1Z" fill="none" stroke="#2a2a2a" stroke-width="2"></path></g><g transform="translate(219 249)"><path d="M0 -29L25.1 -14.5L25.1 14.5L0 29L-25.1 14.5L-25.1 -14.5Z" fill="none" stroke="#2a2a2a" stroke-width="2"></path></g><g transform="translate(525 296)"><path d="M0 -32L27.7 -16L27.7 16L0 32L-27.7 16L-27.7 -16Z" stroke="#2a2a2a" fill="none" stroke-width="2"></path></g><g transform="translate(402 522)"><path d="M0 -37L32 -18.5L32 18.5L0 37L-32 18.5L-32 -18.5Z" stroke="#2a2a2a" fill="none" stroke-width="2"></path></g><g transform="translate(835 166)"><path d="M0 -38L32.9 -19L32.9 19L0 38L-32.9 19L-32.9 -19Z" stroke="#2a2a2a" fill="none" stroke-width="2"></path></g><g transform="translate(508 382)"><path d="M0 -28L24.2 -14L24.2 14L0 28L-24.2 14L-24.2 -14Z" stroke="#2a2a2a" fill="none" stroke-width="2"></path></g><g transform="translate(526 593)"><path d="M0 -29L25.1 -14.5L25.1 14.5L0 29L-25.1 14.5L-25.1 -14.5Z" stroke="#2a2a2a" fill="none" stroke-width="2"></path></g><g transform="translate(533 166)"><path d="M0 -16L13.9 -8L13.9 8L0 16L-13.9 8L-13.9 -8Z" stroke="#2a2a2a" fill="none" stroke-width="2"></path></g><g transform="translate(687 568)"><path d="M0 -20L17.3 -10L17.3 10L0 20L-17.3 10L-17.3 -10Z" stroke="#2a2a2a" fill="none" stroke-width="2"></path></g><g transform="translate(103 22)"><path d="M0 -26L22.5 -13L22.5 13L0 26L-22.5 13L-22.5 -13Z" stroke="#2a2a2a" fill="none" stroke-width="2"></path></g><g transform="translate(17 112)"><path d="M0 -24L20.8 -12L20.8 12L0 24L-20.8 12L-20.8 -12Z" stroke="#2a2a2a" fill="none" stroke-width="2"></path></g><g transform="translate(804 268)"><path d="M0 -34L29.4 -17L29.4 17L0 34L-29.4 17L-29.4 -17Z" stroke="#2a2a2a" fill="none" stroke-width="2"></path></g><g transform="translate(2 201)"><path d="M0 -31L26.8 -15.5L26.8 15.5L0 31L-26.8 15.5L-26.8 -15.5Z" stroke="#2a2a2a" fill="none" stroke-width="2"></path></g><g transform="translate(223 548)"><path d="M0 -38L32.9 -19L32.9 19L0 38L-32.9 19L-32.9 -19Z" stroke="#2a2a2a" fill="none" stroke-width="2"></path></g><g transform="translate(97 412)"><path d="M0 -18L15.6 -9L15.6 9L0 18L-15.6 9L-15.6 -9Z" stroke="#2a2a2a" fill="none" stroke-width="2"></path></g><g transform="translate(244 40)"><path d="M0 -22L19.1 -11L19.1 11L0 22L-19.1 11L-19.1 -11Z" stroke="#2a2a2a" fill="none" stroke-width="2"></path></g></g></svg>