<svg id="visual" viewBox="0 0 960 540" width="960" height="540" xmlns="http://www.w3.org/2000/svg" xmlns:xlink="http://www.w3.org/1999/xlink" version="1.1"><rect x="0" y="0" width="960" height="540" fill="#191919"></rect><path d="M0 177L22.8 168.8C45.7 160.7 91.3 144.3 137 132.3C182.7 120.3 228.3 112.7 274 116.3C319.7 120 365.3 135 411.2 132.8C457 130.7 503 111.3 548.8 106C594.7 100.7 640.3 109.3 686 109.8C731.7 110.3 777.3 102.7 823 113C868.7 123.3 914.3 151.7 937.2 165.8L960 180L960 0L937.2 0C914.3 0 868.7 0 823 0C777.3 0 731.7 0 686 0C640.3 0 594.7 0 548.8 0C503 0 457 0 411.2 0C365.3 0 319.7 0 274 0C228.3 0 182.7 0 137 0C91.3 0 45.7 0 22.8 0L0 0Z" fill="#0c0b0b" stroke-linecap="round" stroke-linejoin="miter"></path></svg>